# xmcd
#
# Track frame offsets:
#	150
#	21142
#	37125
#	56265
#	69442
#	87682
#	101140
#	115112
#	125392
#	136897
#	157154
#	174717
#
# Disc length: 2676 seconds
#
# Revision: 1
# Processed by: cddbd v1.5.1PL0 Copyright (c) Steve Scherf et al.
# Submitted via: audiograbber 1.83.01
#
DISCID=a80a720c
DTITLE=Peter Parcek - Evolution
DYEAR=2001
DGENRE=Jazz/Blues
TTITLE0=Just Play Rhythm, Baby
TTITLE1=Evolution
TTITLE2=Shame, Shame, Shame
TTITLE3=Cafe du Monde Boogie
TTITLE4=Tears Like Diamonds
TTITLE5=Heads Up
TTITLE6=Take Me Back
TTITLE7=I Don't Worry About a Thing
TTITLE8=Lightnin' Hopkins Goes Surfing
TTITLE9=He's Got a Way With Women
TTITLE10=Tiny Moore
TTITLE11=New Year's Eve
EXTD=Peter was guitarist and bandleader for Muddy Waters.
EXTT0=
EXTT1=
EXTT2=
EXTT3=
EXTT4=
EXTT5=
EXTT6=
EXTT7=
EXTT8=
EXTT9=
EXTT10=
EXTT11=
PLAYORDER=
